<svg width="111" height="99" viewBox="0 0 111 99" fill="none" xmlns="http://www.w3.org/2000/svg">
<path d="M72.4225 61.8595C72.4225 71.2314 62.5812 71.0148 61.5406 71.0148H41.4986V52.9628H61.5406C72.0856 52.9628 72.4225 60.0121 72.4225 61.8595ZM59.997 45.6991C60.163 45.6991 69.5212 45.9201 69.5212 37.6752C69.5212 34.2456 68.6515 29.7486 59.997 29.7486H41.4986V45.6991H59.997ZM111 16.5007V82.4993C110.986 86.8716 109.032 91.0612 105.565 94.1529C102.099 97.2446 97.4015 98.9872 92.4992 99H18.5008C13.5985 98.9872 8.90112 97.2446 5.43465 94.1529C1.96819 91.0612 0.0143802 86.8716 0 82.4993V16.5007C0.0143802 12.1284 1.96819 7.93883 5.43465 4.84712C8.90112 1.75541 13.5985 0.0128256 18.5008 0H92.4992C97.4015 0.0128256 102.099 1.75541 105.565 4.84712C109.032 7.93883 110.986 12.1284 111 16.5007ZM83.7579 63.17C83.7579 58.4034 82.1103 50.2889 71.6049 48.2868V48.1255C77.2813 45.9643 80.8566 41.8827 80.8566 35.83C80.8566 34.2832 81.3521 21.5148 61.6298 21.5148H30.1633V79.2641C61.9345 79.2641 64.8185 79.6353 70.6981 78.0023C74.2189 77.0255 83.7579 74.029 83.7579 63.17Z" fill="white"/>
</svg>
