<svg width="108" height="99" viewBox="0 0 108 99" fill="none" xmlns="http://www.w3.org/2000/svg">
<path d="M36.1234 79.7146C36.1234 80.1241 35.6226 80.4516 34.9911 80.4516C34.2726 80.513 33.7718 80.1855 33.7718 79.7146C33.7718 79.3052 34.2726 78.9777 34.904 78.9777C35.5573 78.9163 36.1234 79.2438 36.1234 79.7146ZM29.3516 78.7934C29.1992 79.2029 29.6347 79.6737 30.2879 79.7965C30.854 80.0012 31.5073 79.7965 31.6379 79.3871C31.7685 78.9777 31.3548 78.5069 30.7016 78.3226C30.1355 78.1793 29.504 78.384 29.3516 78.7934ZM38.9758 78.4454C38.3444 78.5887 37.9089 78.9777 37.9742 79.4485C38.0395 79.858 38.6056 80.1241 39.2589 79.9808C39.8903 79.8375 40.3258 79.4485 40.2605 79.0391C40.1952 78.6502 39.6073 78.384 38.9758 78.4454ZM53.3032 0C23.1024 0 0 21.5561 0 49.9496C0 72.6521 15.1984 92.0792 36.9073 98.9166C39.6944 99.3874 40.6742 97.7702 40.6742 96.4396C40.6742 95.1704 40.6089 88.1692 40.6089 83.8703C40.6089 83.8703 25.3669 86.941 22.1661 77.7699C22.1661 77.7699 19.6839 71.8128 16.1129 70.2774C16.1129 70.2774 11.1266 67.0635 16.4613 67.1249C16.4613 67.1249 21.8831 67.5343 24.8661 72.4065C29.6347 80.3083 37.6258 78.036 40.7395 76.6849C41.2403 73.4095 42.6556 71.1372 44.2234 69.7861C32.0516 68.5169 19.771 66.8588 19.771 47.1655C19.771 41.536 21.4258 38.7109 24.9097 35.108C24.3435 33.7774 22.4927 28.2911 25.4758 21.2081C30.0266 19.8775 40.5 26.7353 40.5 26.7353C44.8548 25.5889 49.5363 24.9953 54.1742 24.9953C58.8121 24.9953 63.4935 25.5889 67.8484 26.7353C67.8484 26.7353 78.3218 19.857 82.8726 21.2081C85.8556 28.3116 84.0048 33.7774 83.4387 35.108C86.9226 38.7314 89.0565 41.5564 89.0565 47.1655C89.0565 66.9202 76.2315 68.4965 64.0597 69.7861C66.0629 71.4034 67.7613 74.474 67.7613 79.2848C67.7613 86.1835 67.696 94.72 67.696 96.3986C67.696 97.7293 68.6976 99.3465 71.4629 98.8756C93.2371 92.0792 108 72.6521 108 49.9496C108 21.5561 83.504 0 53.3032 0ZM21.1645 70.605C20.8815 70.8097 20.9468 71.2805 21.3169 71.6695C21.6653 71.997 22.1661 72.1403 22.4492 71.8742C22.7323 71.6695 22.6669 71.1987 22.2968 70.8097C21.9484 70.4822 21.4476 70.3389 21.1645 70.605ZM18.8129 68.9468C18.6605 69.2129 18.8782 69.5405 19.3137 69.7452C19.6621 69.9499 20.0976 69.8885 20.25 69.6019C20.4024 69.3358 20.1847 69.0082 19.7492 68.8035C19.3137 68.6807 18.9653 68.7421 18.8129 68.9468ZM25.8677 76.2346C25.5194 76.5007 25.65 77.1148 26.1508 77.5038C26.6516 77.9746 27.2831 78.036 27.5661 77.7085C27.8492 77.4424 27.7185 76.8282 27.2831 76.4393C26.804 75.9684 26.1508 75.907 25.8677 76.2346ZM23.3855 73.2253C23.0371 73.43 23.0371 73.9623 23.3855 74.4331C23.7339 74.9039 24.3218 75.1086 24.6048 74.9039C24.9532 74.6378 24.9532 74.1056 24.6048 73.6347C24.3 73.1639 23.7339 72.9592 23.3855 73.2253Z" fill="white"/>
</svg>
