<svg width="111" height="99" viewBox="0 0 111 99" fill="none" xmlns="http://www.w3.org/2000/svg">
<path d="M99.1071 0H11.8929C5.32701 0 0 4.75112 0 10.6071V88.3929C0 94.2489 5.32701 99 11.8929 99H99.1071C105.673 99 111 94.2489 111 88.3929V10.6071C111 4.75112 105.673 0 99.1071 0ZM60.4058 77.2112C60.4058 86.846 54.0629 91.2435 44.8212 91.2435C36.4714 91.2435 31.64 87.3984 29.1623 82.7357L37.6607 78.1614C39.296 80.7469 40.7826 82.9346 44.3752 82.9346C47.7944 82.9346 49.9748 81.7413 49.9748 77.0786V45.456H60.4058V77.2112ZM85.0835 91.2435C75.3958 91.2435 69.1272 87.1333 66.0797 81.7413L74.5781 77.3659C76.808 80.6143 79.7317 83.023 84.8605 83.023C89.1716 83.023 91.9467 81.1004 91.9467 78.4266C91.9467 75.2444 89.1221 74.1174 84.3402 72.2391L81.7386 71.2446C74.2065 68.394 69.2263 64.792 69.2263 57.2123C69.2263 50.2292 75.1975 44.9257 84.4888 44.9257C91.129 44.9257 95.8862 46.9808 99.3054 52.3728L91.1786 57.0134C89.3946 54.1627 87.462 53.0357 84.4641 53.0357C81.4165 53.0357 79.4839 54.7594 79.4839 57.0134C79.4839 59.7978 81.4165 60.9248 85.9011 62.6705L88.5027 63.665C97.3728 67.046 102.353 70.5154 102.353 78.294C102.353 86.6471 94.9694 91.2435 85.0835 91.2435Z" fill="white"/>
</svg>
