<svg width="109" height="99" viewBox="0 0 109 99" fill="none" xmlns="http://www.w3.org/2000/svg">
<path d="M108.947 22.3971C108.93 22.3521 108.91 22.3082 108.886 22.2656C108.855 22.1824 108.816 22.1016 108.77 22.0239C108.734 21.9756 108.695 21.9297 108.651 21.8866C108.603 21.8232 108.551 21.7625 108.494 21.7049C108.443 21.6623 108.38 21.6275 108.325 21.5889C108.262 21.5414 108.196 21.4974 108.128 21.4574L87.0294 10.7414C86.7629 10.6057 86.4605 10.5342 86.1527 10.5342C85.8449 10.5342 85.5425 10.6057 85.276 10.7414L64.1734 21.4632C64.1057 21.5037 64.0413 21.5482 63.9806 21.5966C63.9208 21.632 63.8637 21.6707 63.8096 21.7126C63.7522 21.7691 63.6995 21.8292 63.6518 21.8924C63.6145 21.9388 63.5663 21.9794 63.5334 22.0297C63.4891 22.1078 63.451 22.1886 63.4195 22.2714C63.4019 22.3159 63.3734 22.3565 63.3581 22.4029C63.3179 22.534 63.2973 22.6692 63.2967 22.8051V43.1541L45.7142 52.0854V12.267C45.7145 12.1305 45.6939 11.9945 45.6528 11.8629C45.6397 11.8165 45.609 11.7759 45.5914 11.7314C45.5608 11.6489 45.5227 11.5687 45.4775 11.4917C45.4468 11.4414 45.3964 11.4008 45.3591 11.3524C45.3109 11.289 45.2582 11.2283 45.2013 11.1707C45.1466 11.1294 45.0896 11.0907 45.0303 11.0547C44.9689 11.0077 44.9045 10.9638 44.8375 10.9232L23.7327 0.207241C23.4662 0.0714751 23.1638 0 22.856 0C22.5482 0 22.2458 0.0714751 21.9793 0.207241L0.878914 10.9232C0.810409 10.9627 0.74588 11.0073 0.686037 11.0566C0.625591 11.092 0.567757 11.1307 0.512885 11.1726C0.456196 11.2292 0.40419 11.2893 0.357268 11.3524C0.317816 11.4008 0.269597 11.4414 0.23672 11.4917C0.191806 11.5686 0.15441 11.6488 0.124939 11.7314C0.101 11.7735 0.0797788 11.8168 0.0613767 11.861C0.0210542 11.9934 0.000424472 12.1299 6.49987e-06 12.267V76.0174C-0.000833657 76.2897 0.0797875 76.5573 0.233725 76.7932C0.387663 77.0292 0.609464 77.2251 0.876723 77.3612L43.0687 98.7931C43.1625 98.8349 43.26 98.8698 43.3602 98.8975C43.4062 98.913 43.4501 98.9362 43.4983 98.9478C43.7926 99.0174 44.1026 99.0174 44.3969 98.9478C44.4407 98.9381 44.478 98.9169 44.5175 98.9053C44.6233 98.8759 44.726 98.8384 44.8243 98.7931L87.0294 77.3612C87.2967 77.2251 87.5185 77.0292 87.6724 76.7932C87.8264 76.5573 87.907 76.2897 87.9061 76.0174V55.6645L108.123 45.3952C108.392 45.2582 108.615 45.0608 108.769 44.823C108.923 44.5852 109.003 44.3155 109 44.0417V22.8012C109.001 22.6651 108.983 22.5294 108.947 22.3971ZM22.8538 3.34159L40.4298 12.2651L22.8516 21.1944L5.27784 12.267L22.8538 3.34159ZM42.1964 14.9431V53.8701L31.998 59.0502L24.6138 62.8013V23.8802L34.8122 18.7001L42.1964 14.9431ZM42.1964 94.7577L3.51564 75.1202V14.9508L10.8998 18.6981L21.096 23.8802V65.4871C21.1004 65.5455 21.1092 65.6037 21.1223 65.6611C21.1275 65.7378 21.1393 65.8141 21.1574 65.8893C21.1796 65.9492 21.2075 66.0074 21.2406 66.0633C21.2651 66.1299 21.2959 66.1946 21.3327 66.2567C21.3732 66.3091 21.4171 66.3595 21.4642 66.4075C21.5081 66.4645 21.5564 66.5188 21.6089 66.5699C21.6593 66.6124 21.7228 66.6434 21.7776 66.682C21.8375 66.7279 21.9004 66.7705 21.9661 66.8097L42.1722 76.8991L42.1964 94.7577ZM43.9498 74.2288L26.4023 65.4658L44.8331 56.1053L65.0545 45.836L82.6173 54.7557L69.7296 61.2448L43.9498 74.2288ZM84.3927 75.1125L45.7098 94.7674V76.9185L74.3609 62.4939L84.3927 57.4376V75.1125ZM84.3927 52.0777L77.0086 48.34L66.8102 43.16V25.4831L74.1943 29.2343L84.3927 34.4182V52.0777ZM86.1461 31.7208L68.568 22.7935L86.1461 13.868L103.72 22.7915L86.1461 31.7208ZM87.8996 52.0777V34.4182L98.1199 29.2343L105.502 25.4831V43.1541L87.8996 52.0777Z" fill="white"/>
</svg>
