<svg width="99" height="99" viewBox="0 0 99 99" fill="none" xmlns="http://www.w3.org/2000/svg">
<path d="M91.9286 0H7.04933C3.16004 0 0 3.20424 0 7.13772V91.8623C0 95.7958 3.16004 99 7.04933 99H91.9286C95.8179 99 99 95.7958 99 91.8623V7.13772C99 3.20424 95.8179 0 91.9286 0ZM29.921 84.8571H15.2478V37.6112H29.9431V84.8571H29.921ZM22.5844 31.1585C17.8775 31.1585 14.0766 27.3355 14.0766 22.6507C14.0766 17.9658 17.8775 14.1429 22.5844 14.1429C27.2692 14.1429 31.0922 17.9658 31.0922 22.6507C31.0922 27.3576 27.2913 31.1585 22.5844 31.1585ZM84.9234 84.8571H70.2502V61.875C70.2502 56.3946 70.1397 49.3453 62.6263 49.3453C54.9804 49.3453 53.8092 55.3118 53.8092 61.4772V84.8571H39.1359V37.6112H53.2125V44.0638H53.4114C55.3781 40.3513 60.1734 36.44 67.3112 36.44C82.1612 36.44 84.9234 46.2295 84.9234 58.958V84.8571Z" fill="white"/>
</svg>
