<svg width="124" height="99" viewBox="0 0 124 99" fill="none" xmlns="http://www.w3.org/2000/svg">
<path d="M62 4.94118C95.2087 4.94118 120.745 26.1765 120.745 49.5C120.745 72.8235 95.1894 94.0588 62 94.0588C28.7913 94.0588 3.255 72.8235 3.255 49.5C3.255 26.1765 28.8106 4.94118 62 4.94118ZM62 0C27.7644 0 0 22.1471 0 49.5C0 76.8529 27.7644 99 62 99C96.2356 99 124 76.8529 124 49.5C124 22.1471 96.2356 0 62 0ZM42.2762 45.5294C40.7456 57.4412 35.34 56.2059 28.6944 56.2059L31.3487 35.4412C38.7112 35.4412 43.71 34.2353 42.2762 45.5294ZM18.8712 77.2353H25.9819L27.6675 64.0588C35.6306 64.0588 40.5712 64.9412 45.1437 58.4412C50.2006 51.3824 51.5181 38.8235 47.9144 32.5294C46.035 29.2353 43.0125 27.6177 38.905 27.6177H25.2069L18.8712 77.2353ZM54.8506 14.4118H61.9225L60.2369 27.5882C66.34 27.5882 71.9975 26.9118 74.7294 30.7353C77.5969 34.7353 76.2212 39.8529 73.1212 64H65.9525C68.9362 40.6471 69.4981 38.7059 68.4131 36.9412C67.3669 35.2353 64.9838 35.5882 59.2294 35.5882L55.5869 64H48.515L54.8506 14.4118ZM97.8437 45.5294C96.2937 57.6176 90.7331 56.2059 84.2619 56.2059L86.9162 35.4412C94.3175 35.4412 99.2775 34.2353 97.8437 45.5294ZM74.4388 77.2353H81.5687L83.2544 64.0588C91.6244 64.0588 96.255 64.7941 100.731 58.4412C105.788 51.3824 107.105 38.8235 103.501 32.5294C101.622 29.2353 98.5994 27.6177 94.4919 27.6177H80.7937L74.4388 77.2353Z" fill="white"/>
</svg>
