<svg width="152" height="99" viewBox="0 0 152 99" fill="none" xmlns="http://www.w3.org/2000/svg">
<path d="M148.824 15.4901C147.076 9.39288 141.925 4.59087 135.385 2.96123C123.532 0 76 0 76 0C76 0 28.4685 0 16.6146 2.96123C10.0749 4.59113 4.92431 9.39288 3.17619 15.4901C0 26.5418 0 49.6 0 49.6C0 49.6 0 72.6583 3.17619 83.7099C4.92431 89.8072 10.0749 94.4091 16.6146 96.0388C28.4685 99 76 99 76 99C76 99 123.531 99 135.385 96.0388C141.925 94.4091 147.076 89.8072 148.824 83.7099C152 72.6583 152 49.6 152 49.6C152 49.6 152 26.5418 148.824 15.4901ZM60.4544 70.5352V28.6649L100.182 49.6006L60.4544 70.5352Z" fill="white"/>
</svg>
