<svg width="58" height="52" viewBox="0 0 58 52" fill="none" xmlns="http://www.w3.org/2000/svg">
<path d="M40.5103 34.7048L43.7325 31.4855C44.236 30.9825 45.1121 31.3346 45.1121 32.059V46.6863C45.1121 49.3522 42.9471 51.5152 40.2786 51.5152H4.83344C2.16498 51.5152 0 49.3522 0 46.6863V11.2748C0 8.60891 2.16498 6.446 4.83344 6.446H32.374C33.0889 6.446 33.4514 7.31116 32.9479 7.82423L29.7256 11.0435C29.5746 11.1944 29.3732 11.2748 29.1517 11.2748H4.83344V46.6863H40.2786V35.2681C40.2786 35.0569 40.3592 34.8557 40.5103 34.7048ZM56.2793 14.4035L29.8364 40.8213L20.7334 41.8273C18.0952 42.119 15.8496 39.8958 16.1417 37.2399L17.1486 28.1456L43.5916 1.72782C45.8975 -0.57594 49.6233 -0.57594 51.9192 1.72782L56.2693 6.07377C58.5752 8.37753 58.5752 12.1098 56.2793 14.4035ZM46.3305 17.5121L40.48 11.6672L21.7706 30.3689L21.0355 36.9381L27.611 36.2037L46.3305 17.5121ZM52.8557 9.4942L48.5056 5.14825C48.0927 4.73578 47.418 4.73578 47.0153 5.14825L43.9037 8.25681L49.7542 14.1017L52.8657 10.9932C53.2685 10.5706 53.2685 9.90666 52.8557 9.4942Z" fill="black"/>
</svg>
