<svg width="53" height="50" viewBox="0 0 53 50" fill="none" xmlns="http://www.w3.org/2000/svg">
<path d="M3.78571 45.3125C3.78571 46.5557 4.38399 47.748 5.44893 48.6271C6.51387 49.5061 7.95824 50 9.46429 50H43.5357C45.0418 50 46.4861 49.5061 47.5511 48.6271C48.616 47.748 49.2143 46.5557 49.2143 45.3125V12.5H3.78571V45.3125ZM35.9643 20.3125C35.9643 19.8981 36.1637 19.5007 36.5187 19.2077C36.8737 18.9146 37.3551 18.75 37.8571 18.75C38.3592 18.75 38.8406 18.9146 39.1956 19.2077C39.5506 19.5007 39.75 19.8981 39.75 20.3125V42.1875C39.75 42.6019 39.5506 42.9993 39.1956 43.2924C38.8406 43.5854 38.3592 43.75 37.8571 43.75C37.3551 43.75 36.8737 43.5854 36.5187 43.2924C36.1637 42.9993 35.9643 42.6019 35.9643 42.1875V20.3125ZM24.6071 20.3125C24.6071 19.8981 24.8066 19.5007 25.1615 19.2077C25.5165 18.9146 25.998 18.75 26.5 18.75C27.002 18.75 27.4835 18.9146 27.8385 19.2077C28.1934 19.5007 28.3929 19.8981 28.3929 20.3125V42.1875C28.3929 42.6019 28.1934 42.9993 27.8385 43.2924C27.4835 43.5854 27.002 43.75 26.5 43.75C25.998 43.75 25.5165 43.5854 25.1615 43.2924C24.8066 42.9993 24.6071 42.6019 24.6071 42.1875V20.3125ZM13.25 20.3125C13.25 19.8981 13.4494 19.5007 13.8044 19.2077C14.1594 18.9146 14.6408 18.75 15.1429 18.75C15.6449 18.75 16.1263 18.9146 16.4813 19.2077C16.8363 19.5007 17.0357 19.8981 17.0357 20.3125V42.1875C17.0357 42.6019 16.8363 42.9993 16.4813 43.2924C16.1263 43.5854 15.6449 43.75 15.1429 43.75C14.6408 43.75 14.1594 43.5854 13.8044 43.2924C13.4494 42.9993 13.25 42.6019 13.25 42.1875V20.3125ZM51.1071 3.12502H36.9107L35.7987 1.29884C35.5631 0.908429 35.2002 0.58002 34.7509 0.350562C34.3015 0.121105 33.7835 -0.0002957 33.2551 1.71218e-05H19.733C19.2059 -0.00165578 18.6888 0.119292 18.241 0.349005C17.7932 0.578717 17.4329 0.907902 17.2013 1.29884L16.0893 3.12502H1.89286C1.39084 3.12502 0.909385 3.28964 0.554405 3.58266C0.199425 3.87569 0 4.27311 0 4.68752L0 7.81251C0 8.22691 0.199425 8.62434 0.554405 8.91737C0.909385 9.21039 1.39084 9.37501 1.89286 9.37501H51.1071C51.6092 9.37501 52.0906 9.21039 52.4456 8.91737C52.8006 8.62434 53 8.22691 53 7.81251V4.68752C53 4.27311 52.8006 3.87569 52.4456 3.58266C52.0906 3.28964 51.6092 3.12502 51.1071 3.12502Z" fill="black"/>
</svg>
